<?xml version="1.0" standalone="no"?>
<!DOCTYPE svg PUBLIC "-//W3C//DTD SVG 20010904//EN"
 "http://www.w3.org/TR/2001/REC-SVG-20010904/DTD/svg10.dtd">
<svg version="1.0" xmlns="http://www.w3.org/2000/svg"
 width="840.000000pt" height="592.000000pt" viewBox="0 0 840.000000 592.000000"
 preserveAspectRatio="xMidYMid meet">

<g transform="translate(0.000000,592.000000) scale(0.100000,-0.100000)"
fill="#000000" stroke="none">
<path d="M5316 5228 c-8 -13 -49 -142 -90 -288 -72 -257 -317 -1123 -379
-1344 -40 -145 -37 -153 68 -187 44 -15 110 -35 148 -44 98 -25 103 -20 151
146 21 74 47 162 57 195 l19 62 95 55 95 56 0 -339 0 -339 -42 -11 c-24 -6
-64 -18 -90 -26 -75 -24 -137 -111 -92 -128 28 -11 594 -7 615 4 10 6 19 17
19 25 0 26 -80 83 -151 105 l-69 23 0 501 c0 606 -8 674 -90 841 -22 45 -40
93 -40 109 0 32 25 136 81 328 21 75 39 146 39 157 0 35 -33 53 -157 88 -140
39 -167 41 -187 11z"/>
<path d="M2780 4816 c-223 -60 -371 -291 -332 -517 37 -213 196 -357 415 -375
178 -15 358 85 431 240 67 142 61 316 -17 448 -32 54 -121 139 -175 167 -94
48 -226 63 -322 37z"/>
<path d="M2852 3779 c-122 -15 -259 -104 -318 -206 -73 -124 -79 -205 -45
-683 27 -382 41 -640 41 -785 0 -145 18 -237 65 -332 59 -120 164 -199 317
-240 54 -14 141 -17 621 -20 499 -4 561 -3 583 11 l24 16 0 300 0 300 -22 14
c-17 10 -115 19 -360 33 -186 11 -339 21 -341 24 -2 2 -12 168 -22 369 -25
493 -27 550 -21 550 4 0 46 -22 95 -50 48 -27 121 -64 162 -82 l74 -33 375 0
375 0 52 29 c106 58 141 164 89 270 -15 30 -43 66 -62 81 -66 50 -102 55 -420
55 -167 0 -304 4 -318 10 -15 5 -134 75 -265 155 -132 80 -268 157 -303 172
-114 46 -237 60 -376 42z"/>
<path d="M1815 3211 c-70 -32 -125 -111 -125 -178 0 -15 33 -241 74 -503 41
-261 78 -502 81 -535 12 -105 53 -297 84 -389 120 -352 436 -633 796 -707 185
-38 317 -44 732 -30 430 13 431 14 491 87 61 74 62 174 0 248 -61 74 -37 71
-573 71 -467 0 -482 1 -560 22 -44 13 -118 42 -165 64 -69 34 -101 58 -170
128 -92 93 -135 162 -169 274 -26 84 -71 352 -151 892 -34 226 -65 424 -71
441 -5 16 -26 47 -47 67 -68 66 -150 84 -227 48z"/>
<path d="M3800 2580 l0 -280 290 0 290 0 0 -810 0 -810 870 0 870 0 0 810 0
810 295 0 295 0 0 280 0 280 -1455 0 -1455 0 0 -280z"/>
</g>
</svg>
