<?xml version="1.0" standalone="no"?>
<!DOCTYPE svg PUBLIC "-//W3C//DTD SVG 20010904//EN"
 "http://www.w3.org/TR/2001/REC-SVG-20010904/DTD/svg10.dtd">
<svg version="1.0" xmlns="http://www.w3.org/2000/svg"
 width="204.000000pt" height="192.000000pt" viewBox="0 0 204.000000 192.000000"
 preserveAspectRatio="xMidYMid meet">

<g transform="translate(0.000000,192.000000) scale(0.100000,-0.100000)"
fill="#000000" stroke="none">
<path d="M870 1808 c-89 -31 -156 -73 -213 -131 -78 -80 -111 -151 -142 -299
l-5 -27 -103 -3 -102 -3 0 -470 0 -470 303 -3 302 -2 0 -70 0 -70 -103 0 c-67
0 -107 -4 -115 -12 -12 -12 -17 -114 -6 -142 5 -14 44 -16 334 -16 290 0 329
2 334 16 11 28 6 130 -6 142 -8 8 -48 12 -115 12 l-103 0 0 70 0 70 303 2 302
3 0 470 0 470 -102 3 c-97 3 -103 4 -107 25 -21 100 -22 102 -45 105 -22 4
-23 2 -16 -62 l7 -66 -86 0 c-89 0 -100 8 -46 30 47 19 48 49 6 125 -48 84
-62 92 -120 63 -40 -19 -48 -20 -71 -8 -21 11 -25 20 -25 61 0 64 -21 79 -110
79 -89 0 -110 -15 -110 -79 0 -44 -3 -50 -29 -61 -25 -10 -35 -8 -70 10 -53
26 -68 19 -115 -59 -50 -82 -48 -104 12 -135 17 -9 32 -19 32 -21 0 -3 -39 -5
-86 -5 l-87 0 6 53 c10 80 67 185 135 248 153 142 363 169 532 71 43 -25 44
-26 20 -32 -16 -4 -26 -14 -28 -28 -3 -21 0 -22 71 -22 85 0 87 2 87 80 0 61
-7 80 -30 80 -19 0 -30 -19 -30 -50 0 -15 -14 -11 -89 28 -88 44 -92 46 -198
49 -93 3 -117 1 -173 -19z m212 -219 c3 -49 4 -51 51 -76 l48 -27 44 22 45 22
14 -23 c27 -41 41 -80 31 -84 -6 -2 -25 -12 -42 -23 -31 -19 -33 -23 -33 -79
0 -59 0 -60 40 -82 22 -13 40 -27 40 -32 0 -4 -12 -28 -26 -53 l-26 -44 -43
26 -43 25 -51 -28 -51 -28 0 -52 0 -53 -60 0 -60 0 0 53 0 52 -52 27 -52 28
-43 -25 -43 -24 -23 37 c-13 20 -27 42 -30 49 -5 7 9 22 38 39 l46 26 -3 62
c-3 60 -3 61 -46 84 l-43 24 27 46 c15 26 28 49 30 51 2 2 24 -7 48 -20 l45
-23 48 26 c47 26 48 28 51 77 l3 51 59 0 59 0 3 -51z m-566 -326 c14 -83 20
-98 40 -98 17 0 19 6 16 68 l-4 67 79 0 c44 0 83 -3 86 -7 4 -3 -10 -16 -30
-27 -51 -29 -52 -56 -6 -136 44 -74 69 -85 124 -51 29 18 35 18 61 5 24 -12
28 -21 28 -55 0 -73 9 -79 110 -79 101 0 110 6 110 79 0 34 4 43 28 55 26 13
32 13 61 -5 57 -34 74 -27 121 51 23 40 40 80 38 93 -2 13 -19 30 -43 44 -50
28 -35 35 66 31 l74 -3 -3 -30 c-5 -52 -42 -151 -73 -199 -95 -143 -282 -225
-447 -196 -69 12 -192 64 -192 81 0 5 12 9 26 9 21 0 25 4 22 23 -3 20 -9 22
-66 25 -38 2 -69 -2 -78 -9 -20 -16 -19 -132 1 -149 20 -17 45 3 45 36 0 30 2
30 48 0 95 -63 251 -89 365 -62 109 26 174 62 253 140 78 78 119 152 136 244
16 88 15 87 99 87 l74 0 3 -337 2 -338 -670 0 -670 0 0 333 c0 184 3 337 7
340 3 4 39 7 79 7 l73 0 7 -37z m1172 -755 l3 -58 -671 0 -670 0 0 53 c0 30 3
57 7 60 3 4 304 6 667 5 l661 -3 3 -57z m-608 -178 l0 -70 -60 0 -60 0 0 70 0
70 60 0 60 0 0 -70z m220 -155 l0 -35 -280 0 -280 0 0 35 0 35 280 0 280 0 0
-35z"/>
<path d="M962 1486 c-108 -38 -151 -174 -85 -265 25 -35 99 -71 143 -71 186 1
236 254 65 331 -46 21 -76 23 -123 5z m103 -50 c78 -33 98 -138 38 -198 -38
-37 -88 -46 -137 -23 -93 44 -88 179 8 221 40 17 49 17 91 0z"/>
</g>
</svg>
