<?xml version="1.0" standalone="no"?>
<!DOCTYPE svg PUBLIC "-//W3C//DTD SVG 20010904//EN"
 "http://www.w3.org/TR/2001/REC-SVG-20010904/DTD/svg10.dtd">
<svg version="1.0" xmlns="http://www.w3.org/2000/svg"
 width="860.000000pt" height="972.000000pt" viewBox="0 0 860.000000 972.000000"
 preserveAspectRatio="xMidYMid meet">

<g transform="translate(0.000000,972.000000) scale(0.100000,-0.100000)"
fill="#000000" stroke="none">
<path d="M1435 9284 c-117 -21 -256 -60 -338 -94 -79 -33 -209 -109 -214 -125
-1 -5 91 -71 205 -146 114 -75 297 -196 407 -268 125 -82 205 -142 214 -158
19 -37 9 -189 -18 -266 -39 -112 -83 -179 -181 -278 -113 -113 -183 -163 -220
-154 -13 4 -85 40 -160 82 -139 78 -306 170 -563 313 -82 45 -154 80 -161 77
-12 -5 -55 -135 -77 -232 -17 -78 -14 -278 6 -370 22 -107 80 -245 140 -334
89 -135 247 -276 392 -349 91 -47 197 -72 451 -107 264 -37 681 -97 809 -116
39 -6 74 -17 77 -24 2 -7 -28 -41 -67 -76 -277 -246 -944 -858 -993 -912 -120
-131 -174 -256 -182 -423 -6 -142 11 -202 182 -629 155 -387 352 -884 409
-1030 19 -49 92 -234 162 -410 199 -503 215 -548 215 -596 0 -52 -76 -281
-354 -1073 -86 -244 -86 -246 14 -304 130 -76 170 -89 466 -156 482 -108 547
-117 1404 -186 135 -11 347 -29 472 -40 301 -27 334 -26 352 2 13 21 80 237
261 848 101 339 155 472 243 595 104 147 503 630 517 627 6 -1 12 -129 16
-344 5 -310 8 -351 28 -423 97 -356 471 -700 903 -830 152 -46 261 -58 481
-52 215 5 307 21 491 82 91 30 284 120 341 158 l37 25 -38 27 c-54 37 -496
328 -743 488 -112 73 -210 142 -219 155 -24 37 -12 236 21 337 56 171 174 329
341 459 98 76 116 86 156 86 32 0 55 -12 765 -404 344 -191 308 -187 354 -41
106 329 50 696 -152 995 -113 167 -316 341 -490 420 -127 57 -217 73 -1054
184 -201 26 -227 35 -324 114 l-57 47 0 125 c0 145 -18 215 -79 319 -122 205
-377 296 -636 226 -88 -24 -91 -20 -47 56 126 214 126 427 1 606 -65 92 -137
155 -229 200 l-76 38 -136 0 c-125 -1 -141 -3 -217 -32 -46 -16 -83 -28 -83
-25 0 3 18 33 39 66 90 139 133 301 113 428 -23 151 -149 326 -282 390 -160
79 -350 78 -511 -2 -32 -16 -59 -27 -59 -24 0 2 18 28 41 56 177 225 171 516
-15 716 -74 79 -127 116 -212 148 -91 34 -190 41 -295 20 -113 -23 -193 -68
-313 -174 -54 -48 -105 -91 -113 -97 -11 -8 -27 4 -71 51 -70 76 -115 150
-150 246 -26 72 -27 78 -32 393 -6 298 -8 325 -29 390 -68 208 -203 374 -424
524 -138 93 -300 159 -455 186 -107 19 -349 18 -457 -1z m500 -198 c300 -76
579 -316 661 -566 15 -46 18 -97 20 -320 1 -146 5 -296 9 -335 14 -141 75
-279 173 -387 21 -24 53 -62 71 -86 29 -37 32 -45 20 -56 -8 -7 -133 -120
-278 -251 l-264 -239 -19 28 c-11 14 -32 33 -47 40 -14 8 -258 46 -541 85
-651 91 -669 94 -759 137 -231 108 -400 311 -462 552 -25 97 -25 312 0 312 4
0 171 -91 371 -201 215 -119 380 -203 401 -206 42 -6 82 12 184 85 197 140
323 299 388 492 30 91 31 101 31 251 0 133 -3 161 -18 184 -10 15 -151 116
-314 224 -350 231 -318 209 -311 215 9 9 183 56 244 66 108 16 328 5 440 -24z
m1791 -1520 c29 -14 75 -45 102 -70 153 -143 157 -360 10 -519 -84 -91 -423
-388 -438 -384 -13 3 -155 93 -547 345 -40 26 -72 50 -70 54 2 6 320 298 493
452 98 88 169 132 236 146 64 13 154 3 214 -24z m-943 -807 c120 -60 260 -150
527 -337 524 -368 539 -381 593 -473 78 -134 89 -298 29 -439 -85 -200 -240
-323 -428 -337 -76 -6 -142 10 -213 50 -124 71 -353 207 -517 308 -105 65
-203 121 -218 125 -26 6 -42 -7 -212 -177 -144 -145 -184 -190 -184 -211 0
-25 49 -121 270 -533 62 -115 147 -275 190 -355 252 -474 286 -536 302 -556 6
-8 31 1 83 28 41 22 75 42 75 45 0 6 -117 227 -247 466 -36 65 -62 121 -59
124 22 22 333 -65 457 -128 140 -70 293 -184 415 -311 149 -153 239 -279 444
-618 61 -102 113 -186 114 -187 4 -4 130 48 139 57 12 11 -166 357 -242 470
-141 210 -303 393 -474 536 -262 220 -539 339 -852 369 -111 10 -117 14 -177
126 -29 55 -91 168 -137 252 -46 84 -83 165 -84 180 0 23 18 47 89 118 49 49
91 89 95 89 7 0 304 -175 532 -313 241 -147 361 -174 543 -121 21 6 21 5 16
-154 -4 -142 -3 -167 16 -229 71 -233 304 -390 550 -369 42 4 105 9 139 13 60
5 63 4 74 -20 9 -21 8 -45 -6 -117 -41 -211 12 -382 163 -527 104 -100 254
-151 409 -139 99 7 133 -4 181 -58 40 -46 82 -127 82 -160 0 -26 -43 -84 -224
-302 -476 -572 -522 -645 -621 -992 -25 -86 -66 -220 -90 -297 -24 -77 -74
-239 -110 -360 -37 -121 -70 -223 -73 -227 -6 -6 -270 12 -852 57 -409 32
-727 76 -1097 151 -209 42 -459 107 -475 123 -5 4 42 151 103 326 253 734 309
903 309 939 0 37 -19 90 -212 581 -49 127 -130 334 -180 460 -143 367 -349
880 -458 1145 -56 135 -108 274 -116 310 -38 177 7 343 131 478 27 31 185 177
350 325 165 149 329 298 365 331 91 85 497 454 543 494 55 47 85 43 230 -29z
m1655 -69 c128 -68 195 -180 196 -325 1 -94 -26 -164 -90 -235 -52 -58 -372
-350 -383 -350 -5 0 -14 24 -21 53 -6 28 -35 99 -62 157 -45 93 -61 115 -142
195 -51 50 -120 106 -154 125 -34 19 -61 40 -61 45 0 6 58 61 128 122 265 234
302 256 436 251 80 -4 97 -8 153 -38z m664 -874 c66 -31 144 -111 178 -183 32
-66 39 -191 15 -263 -23 -68 -84 -133 -400 -420 -549 -499 -569 -514 -705
-514 -168 -1 -310 98 -355 249 -23 76 -19 190 9 250 33 72 114 152 552 546
413 371 413 371 564 365 67 -2 98 -9 142 -30z m630 -867 c170 -57 256 -184
246 -363 -7 -131 -34 -172 -224 -346 -678 -622 -642 -595 -804 -595 -85 0
-101 3 -153 30 -68 34 -144 112 -177 182 -31 64 -38 171 -16 244 30 104 40
115 524 552 128 115 252 225 276 244 94 73 211 92 328 52z m380 -706 c52 -44
140 -85 228 -106 36 -9 243 -39 460 -67 526 -67 581 -76 663 -105 224 -78 463
-311 565 -551 65 -155 94 -346 73 -483 -6 -41 -14 -78 -17 -82 -3 -5 -28 4
-57 20 -726 402 -892 491 -915 491 -25 0 -175 -93 -267 -165 -204 -159 -346
-365 -417 -605 -38 -130 -33 -379 10 -440 18 -25 89 -74 540 -371 133 -88 242
-163 242 -168 0 -10 -88 -43 -187 -70 -237 -64 -554 -53 -787 29 -279 97 -569
342 -675 571 -59 127 -63 153 -71 554 -5 204 -13 402 -19 440 -22 142 -83 284
-161 379 -22 27 -38 51 -36 54 11 10 781 711 783 712 0 0 21 -16 45 -37z"/>
</g>
</svg>
